<svg width="24" height="24" viewBox="0 0 24 24" fill="none" xmlns="http://www.w3.org/2000/svg">
<g clip-path="url(#clip0)">
<path d="M0 23.04C0 23.571 0.429 24 0.96 24H23.04C23.571 24 24 23.571 24 23.04V10.44H0V23.04ZM23.04 2.16H18V0.24C18 0.108 17.892 0 17.76 0H16.08C15.948 0 15.84 0.108 15.84 0.24V2.16H8.16V0.24C8.16 0.108 8.052 0 7.92 0H6.24C6.108 0 6 0.108 6 0.24V2.16H0.96C0.429 2.16 0 2.589 0 3.12V8.4H24V3.12C24 2.589 23.571 2.16 23.04 2.16Z" fill="black"/>
</g>
<defs>
<clipPath id="clip0">
<rect width="24" height="24" fill="white"/>
</clipPath>
</defs>
</svg>
