<svg width="24" height="24" viewBox="0 0 24 24" fill="none" xmlns="http://www.w3.org/2000/svg">
<g clip-path="url(#clip0)">
<path d="M3.75 17H0.75C0.551088 17 0.360322 17.079 0.21967 17.2197C0.0790176 17.3603 0 17.5511 0 17.75L0 20.75C0 20.9489 0.0790176 21.1397 0.21967 21.2803C0.360322 21.421 0.551088 21.5 0.75 21.5H3.75C3.94891 21.5 4.13968 21.421 4.28033 21.2803C4.42098 21.1397 4.5 20.9489 4.5 20.75V17.75C4.5 17.5511 4.42098 17.3603 4.28033 17.2197C4.13968 17.079 3.94891 17 3.75 17ZM3.75 2H0.75C0.551088 2 0.360322 2.07902 0.21967 2.21967C0.0790176 2.36032 0 2.55109 0 2.75L0 5.75C0 5.94891 0.0790176 6.13968 0.21967 6.28033C0.360322 6.42098 0.551088 6.5 0.75 6.5H3.75C3.94891 6.5 4.13968 6.42098 4.28033 6.28033C4.42098 6.13968 4.5 5.94891 4.5 5.75V2.75C4.5 2.55109 4.42098 2.36032 4.28033 2.21967C4.13968 2.07902 3.94891 2 3.75 2V2ZM3.75 9.5H0.75C0.551088 9.5 0.360322 9.57902 0.21967 9.71967C0.0790176 9.86032 0 10.0511 0 10.25L0 13.25C0 13.4489 0.0790176 13.6397 0.21967 13.7803C0.360322 13.921 0.551088 14 0.75 14H3.75C3.94891 14 4.13968 13.921 4.28033 13.7803C4.42098 13.6397 4.5 13.4489 4.5 13.25V10.25C4.5 10.0511 4.42098 9.86032 4.28033 9.71967C4.13968 9.57902 3.94891 9.5 3.75 9.5ZM23.25 17.75H8.25C8.05109 17.75 7.86032 17.829 7.71967 17.9697C7.57902 18.1103 7.5 18.3011 7.5 18.5V20C7.5 20.1989 7.57902 20.3897 7.71967 20.5303C7.86032 20.671 8.05109 20.75 8.25 20.75H23.25C23.4489 20.75 23.6397 20.671 23.7803 20.5303C23.921 20.3897 24 20.1989 24 20V18.5C24 18.3011 23.921 18.1103 23.7803 17.9697C23.6397 17.829 23.4489 17.75 23.25 17.75ZM23.25 2.75H8.25C8.05109 2.75 7.86032 2.82902 7.71967 2.96967C7.57902 3.11032 7.5 3.30109 7.5 3.5V5C7.5 5.19891 7.57902 5.38968 7.71967 5.53033C7.86032 5.67098 8.05109 5.75 8.25 5.75H23.25C23.4489 5.75 23.6397 5.67098 23.7803 5.53033C23.921 5.38968 24 5.19891 24 5V3.5C24 3.30109 23.921 3.11032 23.7803 2.96967C23.6397 2.82902 23.4489 2.75 23.25 2.75V2.75ZM23.25 10.25H8.25C8.05109 10.25 7.86032 10.329 7.71967 10.4697C7.57902 10.6103 7.5 10.8011 7.5 11V12.5C7.5 12.6989 7.57902 12.8897 7.71967 13.0303C7.86032 13.171 8.05109 13.25 8.25 13.25H23.25C23.4489 13.25 23.6397 13.171 23.7803 13.0303C23.921 12.8897 24 12.6989 24 12.5V11C24 10.8011 23.921 10.6103 23.7803 10.4697C23.6397 10.329 23.4489 10.25 23.25 10.25Z" fill="black"/>
</g>
<defs>
<clipPath id="clip0">
<rect width="24" height="24" fill="white"/>
</clipPath>
</defs>
</svg>
