<svg width="24" height="24" viewBox="0 0 24 24" fill="none" xmlns="http://www.w3.org/2000/svg">
<g clip-path="url(#clip0)">
<path d="M19.5 10.5H18V6C18 2.7 15.3 4.76837e-07 12 4.76837e-07C8.7 4.76837e-07 6 2.7 6 6V10.5H4.5C3.75 10.5 3 11.25 3 12V22.5C3 23.25 3.75 24 4.5 24H19.5C20.25 24 21 23.25 21 22.5V12C21 11.25 20.25 10.5 19.5 10.5ZM13.5 21H10.5L11.1 17.7C10.35 17.4 9.75 16.5 9.75 15.75C9.75 14.55 10.8 13.5 12 13.5C13.2 13.5 14.25 14.55 14.25 15.75C14.25 16.65 13.8 17.4 12.9 17.7L13.5 21ZM15 10.5H9V6C9 4.35 10.35 3 12 3C13.65 3 15 4.35 15 6V10.5Z" fill="black"/>
</g>
<defs>
<clipPath id="clip0">
<rect width="24" height="24" fill="white"/>
</clipPath>
</defs>
</svg>
