<svg width="24" height="24" viewBox="0 0 24 24" fill="none" xmlns="http://www.w3.org/2000/svg">
<path d="M21.6 11C21.3115 11.0021 21.0257 11.0561 20.7564 11.1596L17.8788 8.804C17.9496 8.5472 18 8.2808 18 8C18 6.3368 16.6632 5 15 5C13.3368 5 12 6.3368 12 8C12 8.4752 12.12 8.918 12.3144 9.3164L8.8236 13.442C8.68387 13.4158 8.54215 13.4018 8.4 13.4C8.1852 13.4 7.9824 13.436 7.7856 13.4888L4.71 10.4132C4.764 10.2176 4.8 10.0148 4.8 9.8C4.8 8.4704 3.7296 7.4 2.4 7.4C1.0704 7.4 0 8.4704 0 9.8C0 11.1296 1.0704 12.2 2.4 12.2C2.6148 12.2 2.8176 12.164 3.0144 12.1112L6.09 15.1868C6.03232 15.3862 6.00204 15.5925 6 15.8C6 17.1296 7.0704 18.2 8.4 18.2C9.7296 18.2 10.8 17.1296 10.8 15.8C10.8 15.5156 10.7424 15.248 10.6524 14.9948L14.148 10.8644C14.4204 10.9436 14.7024 11 15 11C15.4736 10.9974 15.9397 10.8818 16.3596 10.6628L19.2384 13.0184C19.2158 13.1444 19.203 13.272 19.2 13.4C19.2 14.7296 20.2704 15.8 21.6 15.8C22.9296 15.8 24 14.7296 24 13.4C24 12.0704 22.9296 11 21.6 11Z" fill="black"/>
</svg>
